<?xml version="1.0" standalone="no"?>
<!DOCTYPE svg PUBLIC "-//W3C//DTD SVG 20010904//EN"
 "http://www.w3.org/TR/2001/REC-SVG-20010904/DTD/svg10.dtd">
<svg version="1.0" xmlns="http://www.w3.org/2000/svg"
 width="56.000000pt" height="60.000000pt" viewBox="0 0 56.000000 60.000000"
 preserveAspectRatio="xMidYMid meet">

<g transform="translate(0.000000,60.000000) scale(0.100000,-0.100000)"
fill="#000000" stroke="none">
<path d="M0 300 l0 -300 280 0 280 0 0 300 0 300 -280 0 -280 0 0 -300z m264
24 c5 -13 1 -15 -19 -10 -40 10 -52 -6 -14 -18 27 -9 34 -16 34 -36 0 -22 -5
-25 -41 -28 -31 -2 -43 1 -48 13 -5 13 0 15 29 9 43 -8 48 12 6 21 -57 12 -46
65 14 65 21 0 35 -6 39 -16z m94 -77 c2 -12 -3 -17 -17 -17 -12 0 -21 6 -21
13 0 31 32 34 38 4z"/>
</g>
</svg>
